<svg xmlns="http://www.w3.org/2000/svg" viewBox="0 0 64 64">
  <defs>
    <linearGradient id="bg" x1="8" y1="10" x2="56" y2="58" gradientUnits="userSpaceOnUse">
      <stop stop-color="#3b82f6"/>
      <stop offset="0.48" stop-color="#06b6d4"/>
      <stop offset="1" stop-color="#10b981"/>
    </linearGradient>
  </defs>
  <rect width="64" height="64" rx="20" fill="#07111f"/>
  <rect x="5" y="5" width="54" height="54" rx="17" fill="url(#bg)" opacity="0.92"/>
  <path d="M18 45V16h18.1c6.9 0 12 4.4 12 10.9 0 4.5-2.5 8.1-6.6 9.9L50 45H39.1l-7.2-7.8H27V45H18Z" fill="#fff"/>
  <path d="M27 30h8c2.6 0 4.2-1.3 4.2-3.4s-1.6-3.4-4.2-3.4h-8V30Z" fill="#07111f"/>
  <path d="M15 51h35" stroke="#fff" stroke-width="4.5" stroke-linecap="round"/>
  <path d="M43 14 51 7l4 10" stroke="#fff" stroke-width="4.2" stroke-linecap="round" stroke-linejoin="round" fill="none"/>
</svg>
